<?xml version="1.0" encoding="UTF-8" standalone="no"?>
<svg
   xmlns:dc="http://purl.org/dc/elements/1.1/"
   xmlns:cc="http://creativecommons.org/ns#"
   xmlns:rdf="http://www.w3.org/1999/02/22-rdf-syntax-ns#"
   xmlns:svg="http://www.w3.org/2000/svg"
   xmlns="http://www.w3.org/2000/svg"
   xml:space="preserve"
   id="svg2"
   viewBox="0 0 55 55"
   height="55"
   width="55"
   version="1.1"><metadata
     id="metadata25"><rdf:RDF><cc:Work
         rdf:about=""><dc:format>image/svg+xml</dc:format><dc:type
           rdf:resource="http://purl.org/dc/dcmitype/StillImage" /><dc:title></dc:title></cc:Work></rdf:RDF></metadata><defs
     id="defs33" /><g
     id="g3830"><g
       id="g4382"
       transform="matrix(0.55205508,0,0,0.55205508,75.618464,18.235971)"><g
         style="fill:none;stroke:#ffffff;stroke-opacity:1"
         id="g4308"
         transform="translate(-80.093659,12.220029)"><g
           style="fill:none;stroke:#ffffff;stroke-opacity:1"
           id="g4310"><path
             style="fill:none;stroke:#ffffff;stroke-width:3.5;stroke-linecap:round;stroke-linejoin:round;stroke-opacity:1"
             id="path4312"
             d="m 6.736,49.002 h 24.52 c 2.225,0 3.439,-1.447 3.439,-3.441 v -27.28 c 0,-1.73 -1.732,-3.441 -3.439,-3.441 h -4.389" /></g></g><g
         style="fill:none;stroke:#ffffff;stroke-opacity:1"
         id="g4314"
         transform="translate(-80.093659,12.220029)"><g
           style="fill:none;stroke:#ffffff;stroke-opacity:1"
           id="g4316"><path
             style="fill:none;stroke:#ffffff;stroke-width:3.5;stroke-linecap:round;stroke-linejoin:round;stroke-opacity:1"
             id="path4318"
             d="m 26.867,38.592 c 0,1.836 -1.345,3.201 -3.441,4.047 L 6.736,49.002 V 14.84 l 16.69,-8.599 c 2.228,-0.394 3.441,0.84 3.441,2.834 v 29.517 z" /></g></g><path
         style="fill:none;stroke:#ffffff;stroke-width:2.25;stroke-linecap:round;stroke-linejoin:round;stroke-opacity:1"
         id="path4320"
         d="m -70.669659,54.827029 c 0,0 -1.351,-0.543 -2.702,-0.543 -1.351,0 -2.703,0.543 -2.703,0.543" /><path
         style="fill:none;stroke:#ffffff;stroke-width:2.25;stroke-linecap:round;stroke-linejoin:round;stroke-opacity:1"
         id="path4322"
         d="m -70.669659,44.226029 c 0,0 -1.239,-0.543 -2.815,-0.543 -1.577,0 -2.59,0.543 -2.59,0.543" /><path
         style="fill:none;stroke:#ffffff;stroke-width:2.25;stroke-linecap:round;stroke-linejoin:round;stroke-opacity:1"
         id="path4324"
         d="m -70.669659,33.898029 c 0,0 -1.125,-0.544 -2.927,-0.544 -1.802,0 -2.478,0.544 -2.478,0.544" /><line
         style="fill:none;stroke:#ffffff;stroke-width:2.25;stroke-linecap:round;stroke-linejoin:round;stroke-opacity:1"
         x1="-66.884659"
         x2="-66.884659"
         y1="58.753029"
         y2="23.725029"
         id="line4326" /></g><g
       id="g4770"
       transform="matrix(1,0,0,-1,-30.386573,49.171266)"><g
         id="g4772"
         transform="translate(34.0803,-1006.42)"><polyline
           transform="matrix(-0.469241,0.469241,-0.469241,-0.469241,66.2906,1019.03)"
           style="fill:none;stroke:#ffffff;stroke-width:3.5;stroke-linecap:round;stroke-linejoin:round"
           points="51.562,15.306 41.17,16.188 42.053,5.794"
           id="polyline4774" /><path
           style="fill:none;stroke:#ffffff;stroke-width:2.5;stroke-linecap:round;stroke-linejoin:round;stroke-miterlimit:4;stroke-opacity:1;stroke-dasharray:none"
           id="path4776"
           d="m 39.363241,1033.1291 -0.05636,9.9115 -8.750608,0.067" /></g></g></g><g
     id="g4428"><g
       style="fill:none;stroke:#ffffff;stroke-opacity:1;display:inline"
       id="g3152"
       transform="matrix(0.75578519,0,0,0.75578519,-4.9396196,-1.2911009)"><g
         style="fill:none;stroke:#ffffff;stroke-opacity:1"
         id="g3154"><polygon
           style="fill:none;stroke:#ffffff;stroke-width:3.5;stroke-opacity:1"
           id="polygon3156"
           points="10.932,48.914 10.932,6.088 31.874,6.088 43.818,18.027 43.818,48.914 " /><polyline
           style="fill:none;stroke:#ffffff;stroke-width:3.5;stroke-opacity:1"
           points="43.818,18.027 31.874,18.027 31.874,6.088    "
           id="polyline3158" /></g></g><line
       style="fill:none;stroke:#ffffff;stroke-width:2.64524817;stroke-opacity:1;display:inline"
       display="inline"
       x1="8.5700407"
       x2="22.929958"
       y1="19.133682"
       y2="19.133682"
       id="line3160" /><line
       style="fill:none;stroke:#ffffff;stroke-width:2.64524817;stroke-opacity:1;display:inline"
       display="inline"
       x1="8.5700407"
       x2="22.929958"
       y1="24.424179"
       y2="24.424179"
       id="line3162" /><line
       style="fill:none;stroke:#ffffff;stroke-width:2.64524817;stroke-opacity:1;display:inline"
       display="inline"
       x1="8.5700407"
       x2="22.929958"
       y1="29.714676"
       y2="29.714676"
       id="line3164" /></g><text
     style="font-style:normal;font-weight:bold;font-size:10.44589424px;line-height:125%;font-family:'Bitstream Vera Sans';-inkscape-font-specification:'Bitstream Vera Sans Bold';letter-spacing:0px;word-spacing:0px;fill:#ffffff;fill-opacity:1;stroke:none"
     xml:space="preserve"
     id="text4437"
     y="48.179806"
     x="2.3528671"><tspan
       id="tspan4439"
       y="48.179806"
       x="2.3528671">EPUB</tspan></text>
</svg>